<?xml version="1.0" encoding="UTF-8" standalone="no"?><!DOCTYPE svg PUBLIC "-//W3C//DTD SVG 1.1//EN" "http://www.w3.org/Graphics/SVG/1.1/DTD/svg11.dtd"><svg width="100%" height="100%" viewBox="0 0 1324 318" version="1.1" xmlns="http://www.w3.org/2000/svg" xmlns:xlink="http://www.w3.org/1999/xlink" xml:space="preserve" xmlns:serif="http://www.serif.com/" style="fill-rule:evenodd;clip-rule:evenodd;stroke-linejoin:round;stroke-miterlimit:2;"><rect id="Artboard1" x="0" y="0" width="1323.35" height="317.333" style="fill:none;"/><g id="Layer-1" serif:id="Layer 1"><path d="M207.63,194.787c-7.371,1.741 -14.805,3.258 -22.1,5.275c-26.742,7.371 -53.909,12.466 -81.542,14.658c-12.971,1.025 -25.904,0.471 -38.717,-3.212c-19.825,-5.7 -25.791,-26.959 -20.4,-42.809c6.121,-17.975 19.442,-30.137 33.771,-41.333c22.079,-17.246 46.738,-30.079 72.288,-41.292c1.545,-0.679 3.437,-2.367 4.891,-0.404c1.779,2.388 -0.862,3.696 -2.187,4.713c-8.542,6.537 -17.521,12.525 -25.821,19.35c-16.196,13.316 -32.338,26.629 -43.038,45.383c-10.47,18.337 2.98,34.533 20.163,35.342c17.083,0.804 33.45,-2.667 49.854,-6.43c20.992,-4.812 41.546,-11.216 62.217,-17.195c2.746,-0.792 5.683,-1.542 6.591,-4.905c0.792,1.563 2.109,1.842 3.625,1.355c13.596,-4.367 75.542,-23.517 76.325,-23.663c0,0.004 0.471,0.083 0.471,0.083l0.288,-0.408c23.166,-6.392 46.266,-13.104 70.691,-12.408c5.663,0.158 11.13,0.954 16.517,2.712c12.692,4.142 23.183,19.7 12.275,35.979c-8.525,12.721 -20.579,21.163 -33.179,29.092c-4.742,2.979 -9.579,5.817 -14.421,8.637c-1.367,0.796 -3.142,1.921 -4.387,0.192c-1.334,-1.846 0.658,-2.908 1.729,-3.983c4.841,-4.879 9.908,-9.538 13.954,-15.159c3.487,-4.841 6.208,-10.158 7.637,-15.841c2.459,-9.729 -2.42,-15.7 -12.5,-16.429c-11.058,-0.805 -21.579,1.879 -31.966,5.046c-23.854,7.279 -47.634,14.795 -71.471,22.129c-1.629,0.504 -2.896,1.379 -4.229,2.287c-0.884,-0.104 -1.854,-0.508 -2.638,-0.271c-14.912,4.454 -29.8,8.988 -44.691,13.509" style="fill:#1eafd9;fill-rule:nonzero;"/><path d="M267.891,149.8c-13.25,5.42 -27.071,9.116 -40.666,13.483c-1.517,0.487 -2.834,0.208 -3.625,-1.354c0.775,-3.713 1.533,-7.413 1.57,-11.246c0.23,-23.879 -23.533,-38.288 -44.441,-26.858c-10.271,5.616 -17.671,14.208 -23.963,23.837c-4.304,6.588 -10.279,9.942 -18.133,9.983c-3.067,0.017 -4.213,-1.141 -3.229,-4.362c6.333,-20.713 15.487,-39.838 32.083,-54.363c18.317,-16.033 39.213,-22.604 63.292,-15.333c8.921,2.692 16.125,7.971 22.029,15.1c2.758,3.333 5.521,6.667 8.283,9.996c5.513,11.358 8.729,23.204 7.679,35.962c-0.291,1.717 -0.587,3.434 -0.879,5.155" style="fill:#114f7e;fill-rule:nonzero;"/><path d="M253.443,184.724c8.07,4.754 17.229,7.279 25.129,12.438c8.037,5.25 15.821,10.708 21.421,18.716c11.35,16.225 8.479,30.742 -8.638,40.521c-15.837,9.042 -33.354,13.288 -51.192,16.288c-1.604,0.275 -2.683,-0.029 -3.087,-1.992c-1.383,-6.712 -5.867,-9.904 -12.975,-10.237c1.496,-2.684 3.867,-2.3 5.758,-2.809c9.913,-2.641 20.092,-4.375 29.488,-8.741c3.637,-1.692 7.862,-3.459 7.879,-8.013c0.012,-4.296 -3.621,-6.517 -7.267,-8.554c-12.225,-6.825 -25.492,-8.442 -39.133,-8.508c12,-12.096 23.366,-24.721 32.616,-39.109" style="fill:#abb7bc;fill-rule:nonzero;"/><path d="M253.443,184.724c-9.25,14.388 -20.617,27.013 -32.617,39.109c-27.184,25.708 -57.071,47.845 -88.784,67.62c-8.225,5.13 -16.404,6.413 -25.058,1.55c-4.321,-2.421 -4.3,-3.308 0.058,-5.912c22.292,-13.317 43.338,-28.329 61.85,-46.609c14.242,-14.066 28.142,-28.5 38.738,-45.7c14.892,-4.516 29.779,-9.049 44.687,-13.504c0.784,-0.237 1.759,0.167 2.642,0.271c-0.192,0.392 -0.383,0.779 -0.575,1.171c-0.187,0.292 -0.379,0.588 -0.571,0.883c-0.121,0.375 -0.246,0.746 -0.371,1.121" style="fill:#114f7e;fill-rule:nonzero;"/><path d="M290.389,57.205c0,15.721 -13.346,28.821 -29.312,28.771c-16.046,-0.054 -28.775,-13.183 -28.846,-29.75c-0.071,-15.487 13.029,-28.296 28.987,-28.346c16.4,-0.05 29.171,12.788 29.171,29.325" style="fill:#114f7e;fill-rule:nonzero;"/><path d="M268.77,144.644c1.05,-12.758 -2.166,-24.604 -7.679,-35.958c2.584,-0.408 4.375,1.287 6.45,2.337c16.767,8.509 30.396,6.25 41.017,-7.125c3.258,-4.1 4.887,-9.325 5.575,-14.52c0.575,-4.359 3.746,-6.425 6.429,-8.971c1.383,-1.313 3.296,-1.438 3.392,1.146c0.721,19.337 -0.288,38.175 -16.521,52.145c-2.271,1.95 -5.479,2.955 -6.25,6.371c-5.579,2.492 -11.388,4.217 -17.392,5.321c-4.937,-1.662 -10.025,-0.233 -15.021,-0.746" style="fill:#abb7bc;fill-rule:nonzero;"/><path d="M217.157,262.511c-0.646,2.817 -1.25,4.654 -1.45,6.534c-0.242,2.241 0.563,6.112 -0.304,6.487c-2.821,1.229 -6.188,1.283 -9.363,1.608c-2.033,0.213 -2.708,-0.904 -1.604,-2.608c3.096,-4.762 6.459,-9.292 12.721,-12.021" style="fill:#abb7bc;fill-rule:nonzero;"/><path d="M222.142,265.726c1.783,-0.05 2.254,1.854 2.529,3.096c0.279,1.241 -1.388,1.212 -2.4,1.171c-1.942,-0.08 -2.271,-1.434 -2.071,-2.984c0.104,-0.846 0.392,-1.771 1.942,-1.283" style="fill:#114f7e;fill-rule:nonzero;"/><path d="M304.307,139.295l-0.287,0.409c-0,-0 -0.471,-0.079 -0.467,-0.084c0.183,-0.279 0.433,-0.383 0.754,-0.325" style="fill:#abb7bc;fill-rule:nonzero;"/><path d="M253.813,183.605c0.191,-0.296 0.383,-0.596 0.57,-0.887c-0.191,0.295 -0.379,0.595 -0.57,0.887" style="fill:#1eafd9;fill-rule:nonzero;"/><g><path d="M553.208,168.534l-12.133,0l-5.6,-66.8c-0.178,-2.133 -0.267,-4.044 -0.267,-5.733l-0.133,0l-26.133,71.867l-10.934,-0l-25.866,-72c-0,1.778 -0.089,3.733 -0.267,5.866l-5.467,66.8l-11.6,0l8.134,-86l15.866,0l24.8,68.934l0.4,-0l25.334,-68.934l15.6,0l8.266,86Z" style="fill:#fff;"/><path d="M609.208,81.334c12.356,0 22.734,4.134 31.134,12.4c8.4,8.267 12.6,18.934 12.6,32c-0,13.067 -4.2,23.734 -12.6,32c-8.4,8.267 -18.778,12.4 -31.134,12.4c-12.444,0 -22.844,-4.111 -31.2,-12.333c-8.355,-8.222 -12.533,-18.911 -12.533,-32.067c-0,-13.066 4.178,-23.733 12.533,-32c8.356,-8.266 18.756,-12.4 31.2,-12.4Zm0,10.534c-8.978,-0 -16.466,3.155 -22.466,9.466c-6,6.312 -9,14.445 -9,24.4c-0,10.045 3,18.178 9,24.4c6,6.223 13.488,9.334 22.466,9.334c8.889,-0 16.334,-3.111 22.334,-9.334c6,-6.222 9,-14.355 9,-24.4c-0,-9.955 -3,-18.088 -9,-24.4c-6,-6.311 -13.445,-9.466 -22.334,-9.466Z" style="fill:#fff;"/><path d="M702.275,168.934l-16.4,0l-26.933,-86l13.466,0l20,67.867c0.711,2.311 1.2,4 1.467,5.067l0.4,-0l1.6,-5.067l20,-67.867l13.6,0l-27.2,86Z" style="fill:#fff;"/><rect x="741.875" y="82.934" width="12.133" height="85.6" style="fill:#fff;"/><path d="M814.408,81.334c12.356,0 22.734,4.134 31.134,12.4c8.4,8.267 12.6,18.934 12.6,32c-0,13.067 -4.2,23.734 -12.6,32c-8.4,8.267 -18.778,12.4 -31.134,12.4c-12.444,0 -22.844,-4.111 -31.2,-12.333c-8.355,-8.222 -12.533,-18.911 -12.533,-32.067c-0,-13.066 4.178,-23.733 12.533,-32c8.356,-8.266 18.756,-12.4 31.2,-12.4Zm0,10.534c-8.978,-0 -16.466,3.155 -22.466,9.466c-6,6.312 -9,14.445 -9,24.4c-0,10.045 3,18.178 9,24.4c6,6.223 13.488,9.334 22.466,9.334c8.889,-0 16.334,-3.111 22.334,-9.334c6,-6.222 9,-14.355 9,-24.4c-0,-9.955 -3,-18.088 -9,-24.4c-6,-6.311 -13.445,-9.466 -22.334,-9.466Z" style="fill:#fff;"/><path d="M887.875,157.868l28,-0l-0,10.666l-40.133,0l-0,-85.6l12.133,0l-0,74.934Z" style="fill:#fff;"/><path d="M975.875,143.601l-35.6,0l-8.8,24.933l-12.933,0l32.4,-86l15.733,0l30.667,86l-13.067,0l-8.4,-24.933Zm-3.6,-10.533l-13.733,-40.534l-0.4,0l-14.267,40.534l28.4,-0Z" style="fill:#fff;"/><path d="M1006.81,82.934l28,0c6.756,0 12.445,2.089 17.067,6.267c4.622,4.178 6.933,9.511 6.933,16c0,4.533 -1.244,8.511 -3.733,11.933c-2.489,3.423 -5.378,5.756 -8.667,7c4,0.623 7.645,2.934 10.934,6.934c3.288,4 4.933,8.666 4.933,14c-0,6.666 -2.311,12.244 -6.933,16.733c-4.623,4.489 -10.4,6.733 -17.334,6.733l-31.2,0l0,-85.6Zm12.134,9.867l-0,27.067l12.933,-0c4.178,-0 7.755,-1.311 10.733,-3.934c2.978,-2.622 4.467,-5.977 4.467,-10.066c-0,-3.911 -1.378,-7.067 -4.133,-9.467c-2.756,-2.4 -6,-3.6 -9.734,-3.6l-14.266,0Zm-0,36.667l-0,29.2l15.733,-0c4.089,-0 7.622,-1.311 10.6,-3.934c2.978,-2.622 4.467,-6.022 4.467,-10.2c-0,-4.533 -1.578,-8.177 -4.734,-10.933c-3.155,-2.755 -7.4,-4.133 -12.733,-4.133l-13.333,-0Z" style="fill:#fff;"/><path d="M1106.41,81.334c9.245,0 16.889,3.378 22.934,10.134l-7.6,7.6c-3.645,-4.8 -8.8,-7.2 -15.467,-7.2c-4.267,-0 -7.778,1.111 -10.533,3.333c-2.756,2.222 -4.134,5.111 -4.134,8.667c0,5.866 3.156,10.178 9.467,12.933c1.333,0.533 3.311,1.267 5.933,2.2c2.622,0.933 4.778,1.756 6.467,2.467c11.555,4.622 17.333,12.666 17.333,24.133c0,7.022 -2.666,12.867 -8,17.533c-5.333,4.667 -11.911,7 -19.733,7c-6.045,0 -11.378,-1.266 -16,-3.8c-4.622,-2.533 -8.311,-5.844 -11.067,-9.933l7.6,-7.467c4.889,7.112 11.289,10.667 19.2,10.667c4.711,0 8.534,-1.311 11.467,-3.933c2.933,-2.622 4.4,-5.889 4.4,-9.8c-0,-3.467 -0.956,-6.289 -2.867,-8.467c-1.911,-2.178 -5.044,-4.155 -9.4,-5.933c-1.066,-0.445 -3.155,-1.267 -6.266,-2.467c-3.112,-1.2 -5.645,-2.289 -7.6,-3.267c-8.712,-4.355 -13.067,-11.511 -13.067,-21.466c-0,-6.756 2.533,-12.267 7.6,-16.534c5.067,-4.266 11.511,-6.4 19.333,-6.4Z" style="fill:#fff;"/><path d="M481.133,235.706l-4.875,0l0,-15.762l-16.521,-0l0,15.762l-4.929,0l0,-34.775l4.929,0l0,14.734l16.521,-0l0,-14.734l4.875,0l0,34.775Z" style="fill:#fff;"/><path d="M513.091,209.273l0,16.358c0,3.431 -1.092,6.085 -3.277,7.963c-2.185,1.878 -4.884,2.817 -8.098,2.817c-3.178,-0 -5.868,-0.939 -8.071,-2.817c-2.202,-1.878 -3.304,-4.532 -3.304,-7.963l0,-16.358l4.767,0l-0,16.196c-0,2.203 0.632,3.873 1.896,5.01c1.264,1.138 2.834,1.707 4.712,1.707c1.914,-0 3.503,-0.56 4.767,-1.68c1.264,-1.119 1.896,-2.798 1.896,-5.037l-0,-16.196l4.712,0Z" style="fill:#fff;"/><path d="M553.12,208.731c3.214,0 5.769,0.804 7.664,2.411c1.896,1.607 2.844,3.909 2.844,6.906l0,17.658l-4.766,0l-0,-16.358c-0,-2.13 -0.632,-3.728 -1.896,-4.794c-1.264,-1.065 -2.835,-1.598 -4.713,-1.598c-1.878,0 -3.503,0.596 -4.875,1.788c-1.372,1.192 -2.058,2.69 -2.058,4.496l-0,16.466l-4.767,0l0,-16.358c0,-2.13 -0.632,-3.728 -1.896,-4.794c-1.263,-1.065 -2.834,-1.598 -4.712,-1.598c-1.878,0 -3.512,0.596 -4.902,1.788c-1.39,1.192 -2.086,2.69 -2.086,4.496l0,16.466l-4.766,0l-0,-26.433l4.55,0l-0,3.088c2.022,-2.42 4.821,-3.63 8.396,-3.63c4.225,0 7.186,1.553 8.883,4.659c0.722,-1.228 1.887,-2.311 3.494,-3.25c1.607,-0.939 3.475,-1.409 5.606,-1.409Z" style="fill:#fff;"/><path d="M583.94,208.731c2.167,0 4.072,0.425 5.715,1.273c1.643,0.849 2.898,1.923 3.764,3.223c-0.072,-0.939 -0.108,-1.625 -0.108,-2.058l0,-1.896l4.604,0l0,26.433l-4.604,0l0,-1.787c0,-0.506 0.036,-1.228 0.108,-2.167c-0.866,1.336 -2.121,2.438 -3.764,3.304c-1.643,0.867 -3.548,1.3 -5.715,1.3c-4.044,0 -7.312,-1.336 -9.804,-4.008c-2.492,-2.672 -3.737,-5.958 -3.737,-9.858c-0,-3.9 1.245,-7.168 3.737,-9.804c2.492,-2.636 5.76,-3.955 9.804,-3.955Zm0.325,4.225c-2.527,0 -4.676,0.912 -6.446,2.736c-1.769,1.824 -2.654,4.089 -2.654,6.798c0,2.708 0.885,4.983 2.654,6.825c1.77,1.841 3.919,2.762 6.446,2.762c2.673,0 4.857,-0.911 6.554,-2.735c1.698,-1.824 2.546,-4.108 2.546,-6.852c0,-2.709 -0.848,-4.974 -2.546,-6.798c-1.697,-1.824 -3.881,-2.736 -6.554,-2.736Z" style="fill:#fff;"/><path d="M620.123,208.731c3.214,0 5.769,0.804 7.665,2.411c1.896,1.607 2.844,3.909 2.844,6.906l-0,17.658l-4.767,0l-0,-16.358c-0,-2.13 -0.632,-3.728 -1.896,-4.794c-1.264,-1.065 -2.835,-1.598 -4.712,-1.598c-1.878,0 -3.512,0.596 -4.903,1.788c-1.39,1.192 -2.085,2.69 -2.085,4.496l0,16.466l-4.767,0l0,-26.433l4.55,0l0,3.088c2.023,-2.42 4.713,-3.63 8.071,-3.63Z" style="fill:#fff;"/><path d="M669.956,208.731c4.045,0 7.313,1.319 9.804,3.955c2.492,2.636 3.738,5.904 3.738,9.804c-0,3.9 -1.255,7.186 -3.765,9.858c-2.51,2.672 -5.769,4.008 -9.777,4.008c-2.167,0 -4.071,-0.433 -5.714,-1.3c-1.644,-0.866 -2.862,-1.95 -3.657,-3.25c0.072,0.939 0.109,1.644 0.109,2.113l-0,12.079l-4.767,0l-0,-36.725l4.658,0l0,1.842c0,0.722 -0.054,1.426 -0.162,2.112c0.903,-1.336 2.175,-2.419 3.819,-3.25c1.643,-0.83 3.547,-1.246 5.714,-1.246Zm-0.325,4.225c-2.672,0 -4.866,0.912 -6.581,2.736c-1.715,1.824 -2.573,4.089 -2.573,6.798c-0,2.708 0.858,4.983 2.573,6.825c1.715,1.841 3.909,2.762 6.581,2.762c2.528,0 4.676,-0.921 6.446,-2.762c1.769,-1.842 2.654,-4.117 2.654,-6.825c0,-2.709 -0.885,-4.974 -2.654,-6.798c-1.77,-1.824 -3.918,-2.736 -6.446,-2.736Z" style="fill:#fff;"/><path d="M701.751,208.623c3.539,0 6.51,1.246 8.911,3.738c2.401,2.491 3.602,5.669 3.602,9.533c-0,0.903 -0.036,1.697 -0.108,2.383l-20.53,0c0,2.167 0.809,4.009 2.427,5.525c1.618,1.517 3.627,2.275 6.027,2.275c2.764,0 5.218,-1.155 7.363,-3.466l3.033,2.87c-2.672,3.25 -6.175,4.875 -10.508,4.875c-3.972,0 -7.213,-1.336 -9.723,-4.008c-2.509,-2.672 -3.764,-5.958 -3.764,-9.858c-0,-3.9 1.236,-7.186 3.71,-9.859c2.474,-2.672 5.66,-4.008 9.56,-4.008Zm0.055,4.225c-2.311,0 -4.225,0.731 -5.742,2.194c-1.517,1.462 -2.347,3.169 -2.492,5.119l15.871,-0c0,-2.095 -0.749,-3.837 -2.248,-5.227c-1.498,-1.391 -3.295,-2.086 -5.389,-2.086Z" style="fill:#fff;"/><path d="M733.882,208.731c0.431,0 1.042,0.037 1.832,0.109l-0,4.604c-0.723,-0.181 -1.463,-0.271 -2.221,-0.271c-1.95,0 -3.638,0.569 -5.065,1.706c-1.426,1.138 -2.139,2.7 -2.139,4.686l-0,16.141l-4.767,0l-0,-26.433l4.55,0l-0,3.033c2.011,-2.383 4.614,-3.575 7.81,-3.575Z" style="fill:#fff;"/><path d="M750.555,198.223c2.275,0 4.098,0.506 5.471,1.517l-1.571,3.737c-0.759,-0.686 -1.806,-1.029 -3.142,-1.029c-1.48,0 -2.663,0.461 -3.548,1.381c-0.885,0.921 -1.327,2.248 -1.327,3.982l0,1.462l6.283,0l0,4.117l-5.904,-0l0,22.316l-4.766,0l-0,-22.316l-4.063,-0l0,-4.117l4.063,0l-0,-2.167c-0,-2.925 0.803,-5.136 2.41,-6.635c1.607,-1.499 3.638,-2.248 6.094,-2.248Z" style="fill:#fff;"/><path d="M758.517,212.659c2.528,-2.691 5.778,-4.036 9.75,-4.036c3.972,0 7.222,1.345 9.75,4.036c2.528,2.69 3.792,5.967 3.792,9.831c-0,3.828 -1.264,7.096 -3.792,9.804c-2.528,2.708 -5.778,4.062 -9.75,4.062c-3.972,0 -7.222,-1.354 -9.75,-4.062c-2.528,-2.708 -3.792,-5.976 -3.792,-9.804c0,-3.864 1.264,-7.141 3.792,-9.831Zm16.033,2.952c-1.661,-1.842 -3.755,-2.763 -6.283,-2.763c-2.528,0 -4.622,0.921 -6.283,2.763c-1.662,1.841 -2.492,4.134 -2.492,6.879c-0,2.78 0.83,5.082 2.492,6.906c1.661,1.824 3.755,2.735 6.283,2.735c2.528,0 4.622,-0.911 6.283,-2.735c1.661,-1.824 2.492,-4.126 2.492,-6.906c-0,-2.745 -0.831,-5.038 -2.492,-6.879Z" style="fill:#fff;"/><path d="M801.427,208.731c0.431,0 1.041,0.037 1.831,0.109l0,4.604c-0.722,-0.181 -1.462,-0.271 -2.221,-0.271c-1.95,0 -3.638,0.569 -5.064,1.706c-1.427,1.138 -2.14,2.7 -2.14,4.686l0,16.141l-4.767,0l0,-26.433l4.55,0l0,3.033c2.011,-2.383 4.615,-3.575 7.811,-3.575Z" style="fill:#fff;"/><path d="M839.549,208.731c3.214,0 5.769,0.804 7.665,2.411c1.896,1.607 2.844,3.909 2.844,6.906l-0,17.658l-4.767,0l-0,-16.358c-0,-2.13 -0.632,-3.728 -1.896,-4.794c-1.264,-1.065 -2.835,-1.598 -4.712,-1.598c-1.878,0 -3.503,0.596 -4.875,1.788c-1.373,1.192 -2.059,2.69 -2.059,4.496l0,16.466l-4.766,0l-0,-16.358c-0,-2.13 -0.632,-3.728 -1.896,-4.794c-1.264,-1.065 -2.835,-1.598 -4.713,-1.598c-1.877,0 -3.511,0.596 -4.902,1.788c-1.39,1.192 -2.085,2.69 -2.085,4.496l-0,16.466l-4.767,0l0,-26.433l4.55,0l0,3.088c2.022,-2.42 4.821,-3.63 8.396,-3.63c4.225,0 7.186,1.553 8.883,4.659c0.723,-1.228 1.887,-2.311 3.494,-3.25c1.607,-0.939 3.476,-1.409 5.606,-1.409Z" style="fill:#fff;"/><path d="M870.37,208.731c2.166,0 4.071,0.425 5.714,1.273c1.643,0.849 2.898,1.923 3.765,3.223c-0.072,-0.939 -0.108,-1.625 -0.108,-2.058l-0,-1.896l4.604,0l-0,26.433l-4.604,0l-0,-1.787c-0,-0.506 0.036,-1.228 0.108,-2.167c-0.867,1.336 -2.122,2.438 -3.765,3.304c-1.643,0.867 -3.548,1.3 -5.714,1.3c-4.045,0 -7.313,-1.336 -9.804,-4.008c-2.492,-2.672 -3.738,-5.958 -3.738,-9.858c0,-3.9 1.246,-7.168 3.738,-9.804c2.491,-2.636 5.759,-3.955 9.804,-3.955Zm0.325,4.225c-2.528,0 -4.677,0.912 -6.446,2.736c-1.77,1.824 -2.654,4.089 -2.654,6.798c-0,2.708 0.884,4.983 2.654,6.825c1.769,1.841 3.918,2.762 6.446,2.762c2.672,0 4.857,-0.911 6.554,-2.735c1.697,-1.824 2.546,-4.108 2.546,-6.852c-0,-2.709 -0.849,-4.974 -2.546,-6.798c-1.697,-1.824 -3.882,-2.736 -6.554,-2.736Z" style="fill:#fff;"/><path d="M906.553,208.731c3.214,0 5.768,0.804 7.664,2.411c1.896,1.607 2.844,3.909 2.844,6.906l-0,17.658l-4.767,0l0,-16.358c0,-2.13 -0.632,-3.728 -1.896,-4.794c-1.263,-1.065 -2.834,-1.598 -4.712,-1.598c-1.878,0 -3.512,0.596 -4.902,1.788c-1.39,1.192 -2.086,2.69 -2.086,4.496l0,16.466l-4.766,0l-0,-26.433l4.55,0l-0,3.088c2.022,-2.42 4.712,-3.63 8.071,-3.63Z" style="fill:#fff;"/><path d="M937.698,208.731c3.864,0 7.006,1.391 9.425,4.171l-2.871,3.142c-1.516,-2.058 -3.701,-3.088 -6.554,-3.088c-2.636,0 -4.803,0.894 -6.5,2.682c-1.697,1.787 -2.546,4.053 -2.546,6.798c0,2.78 0.858,5.082 2.573,6.906c1.715,1.824 3.891,2.735 6.527,2.735c2.672,0 4.821,-0.975 6.446,-2.925l3.033,2.925c-2.491,2.853 -5.651,4.279 -9.479,4.279c-4.116,0 -7.466,-1.336 -10.048,-4.008c-2.582,-2.672 -3.873,-5.958 -3.873,-9.858c0,-3.9 1.273,-7.168 3.819,-9.804c2.546,-2.636 5.895,-3.955 10.048,-3.955Z" style="fill:#fff;"/><path d="M962.831,208.623c3.539,0 6.509,1.246 8.91,3.738c2.402,2.491 3.602,5.669 3.602,9.533c0,0.903 -0.036,1.697 -0.108,2.383l-20.529,0c-0,2.167 0.809,4.009 2.426,5.525c1.619,1.517 3.628,2.275 6.027,2.275c2.764,0 5.218,-1.155 7.364,-3.466l3.033,2.87c-2.672,3.25 -6.175,4.875 -10.508,4.875c-3.973,0 -7.214,-1.336 -9.723,-4.008c-2.51,-2.672 -3.765,-5.958 -3.765,-9.858c0,-3.9 1.237,-7.186 3.711,-9.859c2.473,-2.672 5.66,-4.008 9.56,-4.008Zm0.054,4.225c-2.311,0 -4.225,0.731 -5.742,2.194c-1.516,1.462 -2.347,3.169 -2.491,5.119l15.871,-0c-0,-2.095 -0.75,-3.837 -2.248,-5.227c-1.499,-1.391 -3.295,-2.086 -5.39,-2.086Z" style="fill:#fff;"/><path d="M1010.12,208.731c2.167,0 4.072,0.425 5.715,1.273c1.643,0.849 2.897,1.923 3.764,3.223c-0.072,-0.939 -0.108,-1.625 -0.108,-2.058l-0,-1.896l4.604,0l-0,26.433l-4.604,0l-0,-1.787c-0,-0.506 0.036,-1.228 0.108,-2.167c-0.867,1.336 -2.121,2.438 -3.764,3.304c-1.643,0.867 -3.548,1.3 -5.715,1.3c-4.044,0 -7.313,-1.336 -9.804,-4.008c-2.492,-2.672 -3.738,-5.958 -3.738,-9.858c0,-3.9 1.246,-7.168 3.738,-9.804c2.491,-2.636 5.76,-3.955 9.804,-3.955Zm0.325,4.225c-2.528,0 -4.676,0.912 -6.446,2.736c-1.769,1.824 -2.654,4.089 -2.654,6.798c-0,2.708 0.885,4.983 2.654,6.825c1.77,1.841 3.918,2.762 6.446,2.762c2.672,0 4.857,-0.911 6.554,-2.735c1.697,-1.824 2.546,-4.108 2.546,-6.852c-0,-2.709 -0.849,-4.974 -2.546,-6.798c-1.697,-1.824 -3.882,-2.736 -6.554,-2.736Z" style="fill:#fff;"/><path d="M1046.3,208.731c3.214,0 5.769,0.804 7.664,2.411c1.896,1.607 2.844,3.909 2.844,6.906l0,17.658l-4.766,0l-0,-16.358c-0,-2.13 -0.632,-3.728 -1.896,-4.794c-1.264,-1.065 -2.835,-1.598 -4.713,-1.598c-1.878,0 -3.512,0.596 -4.902,1.788c-1.39,1.192 -2.085,2.69 -2.085,4.496l-0,16.466l-4.767,0l0,-26.433l4.55,0l0,3.088c2.022,-2.42 4.713,-3.63 8.071,-3.63Z" style="fill:#fff;"/><path d="M1077.12,208.731c2.167,0 4.072,0.425 5.715,1.273c1.643,0.849 2.898,1.923 3.764,3.223c-0.072,-0.939 -0.108,-1.625 -0.108,-2.058l0,-1.896l4.604,0l0,26.433l-4.604,0l0,-1.787c0,-0.506 0.036,-1.228 0.108,-2.167c-0.866,1.336 -2.121,2.438 -3.764,3.304c-1.643,0.867 -3.548,1.3 -5.715,1.3c-4.044,0 -7.312,-1.336 -9.804,-4.008c-2.492,-2.672 -3.737,-5.958 -3.737,-9.858c-0,-3.9 1.245,-7.168 3.737,-9.804c2.492,-2.636 5.76,-3.955 9.804,-3.955Zm0.325,4.225c-2.527,0 -4.676,0.912 -6.446,2.736c-1.769,1.824 -2.654,4.089 -2.654,6.798c0,2.708 0.885,4.983 2.654,6.825c1.77,1.841 3.919,2.762 6.446,2.762c2.673,0 4.857,-0.911 6.554,-2.735c1.698,-1.824 2.546,-4.108 2.546,-6.852c0,-2.709 -0.848,-4.974 -2.546,-6.798c-1.697,-1.824 -3.881,-2.736 -6.554,-2.736Z" style="fill:#fff;"/><rect x="1100.68" y="198.494" width="4.767" height="37.212" style="fill:#fff;"/><path d="M1121.43,245.998l-4.984,0l4.767,-11.05l-10.292,-25.675l5.309,0l6.825,18.092c0.361,1.191 0.578,1.914 0.65,2.166l0.054,0c0.289,-1.119 0.505,-1.841 0.65,-2.166l6.933,-18.092l5.309,0l-15.221,36.725Z" style="fill:#fff;"/><path d="M1148.08,209.273l5.904,0l0,4.117l-5.904,-0l0,22.316l-4.766,0l-0,-22.316l-4.063,-0l0,-4.117l4.063,0l-0,-6.987l4.766,-0l0,6.987Z" style="fill:#fff;"/><path d="M1162.65,198.927c0.722,0 1.363,0.28 1.923,0.84c0.559,0.56 0.839,1.219 0.839,1.977c0,0.794 -0.28,1.472 -0.839,2.031c-0.56,0.56 -1.201,0.84 -1.923,0.84c-0.795,-0 -1.472,-0.28 -2.032,-0.84c-0.559,-0.559 -0.839,-1.237 -0.839,-2.031c-0,-0.794 0.28,-1.463 0.839,-2.004c0.56,-0.542 1.237,-0.813 2.032,-0.813Zm2.329,36.779l-4.713,0l0,-26.433l4.713,0l-0,26.433Z" style="fill:#fff;"/><path d="M1186.27,208.731c3.864,0 7.006,1.391 9.425,4.171l-2.871,3.142c-1.517,-2.058 -3.701,-3.088 -6.554,-3.088c-2.636,0 -4.803,0.894 -6.5,2.682c-1.697,1.787 -2.546,4.053 -2.546,6.798c0,2.78 0.858,5.082 2.573,6.906c1.715,1.824 3.891,2.735 6.527,2.735c2.672,0 4.821,-0.975 6.446,-2.925l3.033,2.925c-2.491,2.853 -5.651,4.279 -9.479,4.279c-4.117,0 -7.466,-1.336 -10.048,-4.008c-2.582,-2.672 -3.873,-5.958 -3.873,-9.858c0,-3.9 1.273,-7.168 3.819,-9.804c2.546,-2.636 5.895,-3.955 10.048,-3.955Z" style="fill:#fff;"/><path d="M1209.61,208.623c3.323,0 5.886,0.939 7.692,2.817l-2.437,3.304c-1.337,-1.336 -3.034,-2.004 -5.092,-2.004c-1.372,-0 -2.456,0.298 -3.25,0.894c-0.795,0.595 -1.192,1.363 -1.192,2.302c0,0.902 0.298,1.652 0.894,2.248c0.596,0.595 1.58,1.128 2.952,1.597l2.763,0.975c4.044,1.337 6.066,3.828 6.066,7.475c0,2.239 -0.875,4.153 -2.627,5.742c-1.751,1.589 -4.053,2.383 -6.906,2.383c-3.864,0 -6.807,-1.227 -8.829,-3.683l2.437,-3.304c1.697,1.914 3.792,2.871 6.284,2.871c1.408,-0 2.581,-0.352 3.52,-1.056c0.939,-0.705 1.409,-1.634 1.409,-2.79c-0,-1.878 -1.282,-3.25 -3.846,-4.117l-3.142,-1.029c-3.791,-1.228 -5.687,-3.593 -5.687,-7.096c-0,-2.202 0.848,-4.008 2.546,-5.416c1.697,-1.409 3.845,-2.113 6.445,-2.113Z" style="fill:#fff;"/></g></g></svg>